:FULLY-SPECIFIED
:DEGREES
1
root 10.4862 16.6159 -2.15773 -116.138 -87.3342 130.706
lowerback 0.349405 0.888981 -3.46962
upperback 1.8152 1.19591 -1.88693
thorax 1.63561 0.545696 0.0201422
lowerneck -18.5666 -1.6459 -3.08133
upperneck 31.4663 -3.60409 4.37902
head 13.9634 -1.56213 1.608
rclavicle 3.18055e-015 4.65156e-014
rhumerus -26.1537 2.61266 -88.9528
rradius 42.8644
rwrist 18.1644
rhand -22.023 -8.42129
rfingers 7.12502
rthumb 4.38658 -38.3559
lclavicle 3.18055e-015 4.65156e-014
lhumerus -34.6269 -7.22692 87.5274
lradius 24.6349
lwrist -0.0833931
lhand -20.6228 5.76762
lfingers 7.12502
lthumb 5.7385 35.6699
rfemur -33.6182 -5.8463 16.694
rtibia 74.8118
rfoot 1.25493 2.1171
rtoes -14.5393
lfemur -32.6441 1.66192 -26.109
ltibia 34.3408
lfoot -12.45 1.40114
ltoes -5.06932
2
root 10.4978 16.6273 -2.13096 -115.266 -87.5312 129.8
lowerback 0.364001 0.687113 -3.2173
upperback 1.78164 0.925538 -1.68628
thorax 1.59997 0.415536 0.0822053
lowerneck -18.4105 -1.74929 -3.13242
upperneck 31.3553 -3.76724 4.45043
head 13.892 -1.63309 1.61607
rclavicle 8.94531e-015 -3.29983e-014
rhumerus -26.3977 2.10997 -88.7565
rradius 41.9515
rwrist 19.1442
rhand -21.7124 -8.01014
rfingers 7.12502
rthumb 4.68649 -37.9383
lclavicle 8.94531e-015 -3.29983e-014
lhumerus -34.3923 -7.77469 87.7688
lradius 25.554
lwrist 0.646665
lhand -21.4865 5.79318
lfingers 7.12502
lthumb 4.90459 35.7164
rfemur -35.3004 -6.12053 16.9322
rtibia 74.8869
rfoot 0.686223 2.74448
rtoes -14.5272
lfemur -31.6654 1.36412 -25.9907
ltibia 34.2724
lfoot -13.0368 1.38154
ltoes -4.59181
3
root 10.5134 16.629 -2.1052 -115.058 -87.4623 129.551
lowerback 0.407357 0.528859 -3.23446
upperback 1.74296 0.712134 -1.51889
thorax 1.53883 0.309704 0.260904
lowerneck -18.224 -1.86111 -3.17941
upperneck 31.2451 -3.92162 4.45297
head 13.8123 -1.71001 1.59768
rclavicle -6.21202e-015 8.34896e-015
rhumerus -26.6724 1.62859 -88.5228
rradius 41.1041
rwrist 20.0307
rhand -21.5422 -7.83715
rfingers 7.12502
rthumb 4.85084 -37.7616
lclavicle -6.21202e-015 8.34896e-015
lhumerus -34.0325 -8.06702 87.9256
lradius 26.3528
lwrist 1.4394
lhand -22.4203 5.66797
lfingers 7.12502
lthumb 4.00293 35.6101
rfemur -37.0193 -6.27979 16.9497
rtibia 74.7513
rfoot 0.0554567 3.44765
rtoes -15.0445
lfemur -30.7636 1.19922 -26.1446
ltibia 34.2989
lfoot -13.7564 1.54099
ltoes -5.18971
4
root 10.531 16.6267 -2.08112 -117.565 -87.3626 132.129
lowerback 0.336361 0.39889 -3.21002
upperback 1.6753 0.541313 -1.37392
thorax 1.51278 0.22589 0.394745
lowerneck -17.9886 -1.95101 -3.23422
upperneck 31.0825 -4.07406 4.55701
head 13.7027 -1.77446 1.62155
rclavicle 4.99446e-015 -2.06736e-014
rhumerus -26.9042 1.0762 -88.2719
rradius 40.083
rwrist 20.7912
rhand -21.56 -7.13373
rfingers 7.12502
rthumb 4.83362 -37.0586
lclavicle 4.99446e-015 -2.06736e-014
lhumerus -33.694 -8.33728 87.9828
lradius 27.2134
lwrist 2.05321
lhand -23.3838 5.58523
lfingers 7.12502
lthumb 3.07247 35.5428
rfemur -38.86 -6.26188 17.0516
rtibia 74.4362
rfoot -0.576387 4.1261
rtoes -14.6238
lfemur -29.9171 1.09982 -26.2544
ltibia 34.194
lfoot -14.4028 1.8332
ltoes -5.81318
5
root 10.5509 16.6153 -2.0596 -119.435 -87.1602 134.113
lowerback 0.236982 0.323431 -3.27132
upperback 1.67224 0.445722 -1.25505
thorax 1.56706 0.176452 0.550554
lowerneck -18.0649 -2.11972 -3.34427
upperneck 31.0052 -4.3156 4.66814
head 13.705 -1.87513 1.6422
rclavicle 1.09332e-015 -3.45885e-014
rhumerus -27.0124 0.421521 -88.0041
rradius 39.2231
rwrist 21.1888
rhand -21.5794 -7.34177
rfingers 7.12502
rthumb 4.81488 -37.2671
lclavicle 1.09332e-015 -3.45885e-014
lhumerus -33.0962 -8.70787 88.0268
lradius 28.0735
lwrist 2.88008
lhand -24.2266 5.57539
lfingers 7.12502
lthumb 2.25847 35.5432
rfemur -40.7133 -6.09446 17.0659
rtibia 73.8809
rfoot -1.22269 4.60957
rtoes -14.9411
lfemur -29.1216 1.04114 -26.4674
ltibia 34.0845
lfoot -15.0437 1.98016
ltoes -5.77154
6
root 10.5536 16.6209 -2.04629 -107.936 -87.2476 122.156
lowerback 0.610392 0.00624684 -3.51403
upperback 1.78921 0.00725836 -1.1067
thorax 1.49275 -0.0476546 0.833479
lowerneck -17.7863 -2.27209 -3.42278
upperneck 30.7984 -4.55262 4.78477
head 13.5741 -1.97829 1.661
rclavicle 5.96354e-015 3.35946e-014
rhumerus -27.3746 -0.000598558 -87.7684
rradius 38.5552
rwrist 21.2774
rhand -21.5788 -7.67711
rfingers 7.12502
rthumb 4.81549 -37.6024
lclavicle 5.96354e-015 3.35946e-014
lhumerus -32.6271 -8.85774 87.9836
lradius 28.9205
lwrist 3.55221
lhand -24.9558 5.53444
lfingers 7.12502
lthumb 1.55422 35.5085
rfemur -41.4478 -6.53342 17.0201
rtibia 72.9501
rfoot -2.10771 4.72192
rtoes -14.7597
lfemur -27.5407 0.652501 -26.7328
ltibia 33.8589
lfoot -15.5841 1.86704
ltoes -6.33905
7
root 10.5699 16.617 -2.03065 -105.624 -87.2698 119.791
lowerback 0.750562 -0.161417 -3.55431
upperback 1.78241 -0.223125 -0.938804
thorax 1.41737 -0.162647 1.02708
lowerneck -17.693 -2.43218 -3.56018
upperneck 30.6738 -4.8023 4.96722
head 13.5244 -2.08117 1.71382
rclavicle 2.98177e-015 2.16675e-014
rhumerus -27.6641 -0.609855 -87.4623
rradius 37.8412
rwrist 21.4067
rhand -21.5892 -8.11887
rfingers 7.12502
rthumb 4.80541 -38.0444
lclavicle 2.98177e-015 2.16675e-014
lhumerus -32.0838 -9.00581 87.8915
lradius 29.7849
lwrist 4.14415
lhand -25.7011 5.29318
lfingers 7.12502
lthumb 0.834465 35.2713
rfemur -42.7591 -6.55698 17.201
rtibia 71.7676
rfoot -2.70719 4.73824
rtoes -14.6862
lfemur -26.4993 0.666076 -26.8627
ltibia 33.6324
lfoot -16.0323 1.86346
ltoes -6.93391
